<?xml version="1.0" standalone="no"?>
<!DOCTYPE svg PUBLIC "-//W3C//DTD SVG 20010904//EN"
 "http://www.w3.org/TR/2001/REC-SVG-20010904/DTD/svg10.dtd">
<svg version="1.0" xmlns="http://www.w3.org/2000/svg"
 width="147.000000pt" height="147.000000pt" viewBox="0 0 147.000000 147.000000"
 preserveAspectRatio="xMidYMid meet">
<metadata>
Created by potrace 1.14, written by Peter Selinger 2001-2017
</metadata>
<g transform="translate(0.000000,147.000000) scale(0.100000,-0.100000)"
fill="#000000" stroke="none">
<path d="M597 1275 c-26 -7 -55 -19 -64 -27 -13 -10 -15 -10 -9 0 8 14 -95
-46 -105 -61 -3 -5 -9 -8 -13 -8 -17 3 -136 -117 -136 -137 0 -7 -7 -15 -15
-18 -8 -4 -15 -10 -15 -14 0 -4 -10 -29 -22 -56 -12 -27 -23 -58 -25 -69 -2
-11 -6 -27 -10 -35 -7 -18 -11 -181 -4 -195 3 -5 6 -18 8 -27 8 -47 10 -54 20
-73 6 -11 12 -24 13 -30 4 -19 54 -100 72 -116 10 -9 18 -21 18 -28 0 -6 3
-11 8 -11 4 0 22 -14 41 -30 18 -16 38 -27 45 -23 6 3 8 3 4 -2 -7 -7 14 -35
26 -35 3 0 29 -15 58 -32 67 -41 60 -40 212 -44 92 -3 134 0 145 9 12 10 13 9
7 -1 -6 -10 0 -9 23 2 17 9 33 16 36 16 27 -1 85 20 85 31 0 5 6 9 13 9 6 0
28 15 48 33 20 17 52 45 72 62 20 16 35 31 33 33 -2 2 9 17 25 35 16 17 29 37
29 44 0 7 4 13 10 13 5 0 9 3 8 8 -1 4 6 23 14 42 22 48 31 74 30 83 -1 4 1 7
6 7 7 0 6 179 -1 210 -13 56 -43 140 -49 140 -4 0 -8 5 -8 11 0 6 -13 29 -29
52 -30 44 -91 112 -91 103 0 -3 -11 6 -25 20 -14 14 -30 22 -37 18 -7 -4 -8
-3 -4 4 6 10 -22 28 -54 34 -3 1 -11 7 -18 14 -7 7 -20 10 -29 7 -12 -5 -14
-3 -8 7 6 10 4 12 -8 7 -10 -3 -17 -2 -17 4 0 6 -4 7 -10 4 -5 -3 -10 -2 -10
3 0 11 -5 12 -135 16 -71 3 -127 -1 -158 -9z"/>
</g>
</svg>
